<?xml version="1.0" encoding="utf-8"?>
<!-- Generator: Adobe Illustrator 19.0.0, SVG Export Plug-In . SVG Version: 6.00 Build 0)  -->
<svg version="1.1" id="Layer_1" xmlns="http://www.w3.org/2000/svg" xmlns:xlink="http://www.w3.org/1999/xlink" x="0px" y="0px"
	 viewBox="0 0 40 72" style="enable-background:new 0 0 40 72;" xml:space="preserve">
<style type="text/css">
	.st0{fill:#652D88;}
</style>
<g>
	<g>
		<path class="st0" d="M27.8,49.5H12.2c-0.9,0-1.7-0.5-2-1.4L1.5,28c-0.5-1.1,0-2.5,1.2-3c1.1-0.5,2.4,0,2.9,1.2L13.7,45h12.6
			l8.1-18.8c0.5-1.1,1.8-1.7,2.9-1.2c1.1,0.5,1.6,1.8,1.1,3l-8.7,20.1C29.5,49,28.7,49.5,27.8,49.5z"/>
	</g>
	<g>
		<path class="st0" d="M36.5,29.3c-0.3,0-0.6-0.1-0.8-0.2c-1.1-0.5-1.7-1.8-1.2-2.9c0.7-1.9,1.1-3.9,1.1-5.9c0-8.7-7-15.8-15.6-15.8
			c-8.6,0-15.6,7.1-15.6,15.8c0,2,0.4,4,1.1,5.9c0.5,1.2-0.1,2.5-1.2,2.9c-1.1,0.5-2.4-0.1-2.9-1.2c-1-2.4-1.5-5-1.5-7.6
			C0,9.1,9,0,20,0c11,0,20,9.1,20,20.3c0,2.6-0.5,5.2-1.5,7.6C38.2,28.7,37.4,29.3,36.5,29.3z"/>
	</g>
	<g>
		<path class="st0" d="M20,49.5c-1.2,0-2.2-1-2.2-2.3V31.6c0-1.2,1-2.3,2.2-2.3c1.2,0,2.2,1,2.2,2.3v15.7
			C22.2,48.5,21.2,49.5,20,49.5z"/>
	</g>
	<g>
		<path class="st0" d="M28.9,56.3H12.2c-1.2,0-2.2-1-2.2-2.3s1-2.3,2.2-2.3h16.7c1.2,0,2.2,1,2.2,2.3S30.1,56.3,28.9,56.3z"/>
	</g>
	<g>
		<path class="st0" d="M28.3,63H11.7c-1.2,0-2.2-1-2.2-2.3s1-2.3,2.2-2.3h16.7c1.2,0,2.2,1,2.2,2.3S29.6,63,28.3,63z"/>
	</g>
	<g>
		<path class="st0" d="M15.6,67.5c-1.2,0-2.2-1-2.2-2.3v-4.5c0-1.2,1-2.3,2.2-2.3c1.2,0,2.2,1,2.2,2.3v4.5
			C17.8,66.5,16.8,67.5,15.6,67.5z"/>
	</g>
	<g>
		<path class="st0" d="M20,72c-3.7,0-6.7-3-6.7-6.8c0-1.2,1-2.3,2.2-2.3c1.2,0,2.2,1,2.2,2.3c0,1.2,1,2.3,2.2,2.3
			c1.2,0,2.2-1,2.2-2.3v-3.9c0-1.2,1-2.3,2.2-2.3c1.2,0,2.2,1,2.2,2.3v3.9C26.7,69,23.7,72,20,72z"/>
	</g>
	<g>
		<path class="st0" d="M20,33.8c-3.7,0-6.7-3-6.7-6.8c0-1.2,1-2.3,2.2-2.3c1.2,0,2.2,1,2.2,2.3c0,1.2,1,2.3,2.2,2.3
			c1.2,0,2.2-1,2.2-2.3c0-1.2,1-2.3,2.2-2.3c1.2,0,2.2,1,2.2,2.3C26.7,30.8,23.7,33.8,20,33.8z"/>
	</g>
</g>
</svg>
